<svg t="1747719836643" class="icon" viewBox="0 0 1024 1024" version="1.1" xmlns="http://www.w3.org/2000/svg" p-id="2228" width="200" height="200"><path d="M512.1 60C262.5 60 60 262.3 60 511.9s202.3 452 451.9 452.1c249.6 0 452-202.3 452.1-451.9v-0.1c0-249.6-202.2-451.9-451.9-452 0.1 0 0 0 0 0z m0 819.3c-202.8 0.1-367.4-164.2-367.5-367-0.1-202.8 164.2-367.4 367-367.5 202.8-0.1 367.4 164.2 367.5 367v0.2c0.1 202.8-164.2 367.2-367 367.3z" fill="#7A828B" p-id="2229"></path><path d="M454.7 353.7h-65.9a48.218 48.218 0 0 0-12.2 43.2v230.2c-3.3 15.5 1.3 31.6 12.2 43.2h65.9c10.9-11.5 15.5-27.6 12.2-43.2V396.9c3.2-15.5-1.3-31.7-12.2-43.2z m180.5 0h-65.9a48.218 48.218 0 0 0-12.2 43.2v230.2c-3.3 15.5 1.3 31.6 12.2 43.2h65.9c10.9-11.5 15.5-27.6 12.2-43.2V396.9c3.3-15.5-1.2-31.7-12.2-43.2z" fill="#FF0000" p-id="2230"></path></svg>